<?xml version="1.0" standalone="no"?><!DOCTYPE svg PUBLIC "-//W3C//DTD SVG 1.1//EN" "http://www.w3.org/Graphics/SVG/1.1/DTD/svg11.dtd"><svg t="1579435346412" class="icon" viewBox="0 0 1024 1024" version="1.1" xmlns="http://www.w3.org/2000/svg" p-id="5367" xmlns:xlink="http://www.w3.org/1999/xlink" width="48" height="48"><defs><style type="text/css"></style></defs><path d="M516.288 170.666667c4.330667 0 8.512 1.621333 11.733333 4.544L868.906667 485.333333c6.549333 5.973333 7.552 15.786667 2.688 22.954667l-1.450667 1.877333c-0.277333 0.298667-114.325333 104.085333-342.165333 311.381334a17.386667 17.386667 0 0 1-24.661334-1.237334 17.642667 17.642667 0 0 1-4.522666-11.797333v-179.904c-16.213333 0.426667-32.170667 1.962667-47.744 4.586667l-4.693334 0.810666c-129.066667 23.552-232.810667 98.304-267.306666 223.936l-2.624-5.696C166.186667 829.12 149.333333 781.525333 149.333333 734.037333c0-198.058667 154.922667-359.68 349.482667-368.874666V188.245333c0-9.706667 7.829333-17.578667 17.493333-17.578666z" p-id="5368" fill="#1890ff"></path></svg>